<svg width="1200" height="900" viewBox="0 0 1200 900" fill="none" xmlns="http://www.w3.org/2000/svg">
  <defs>
    <linearGradient id="bg" x1="140" y1="120" x2="1060" y2="780" gradientUnits="userSpaceOnUse">
      <stop stop-color="#F97316" stop-opacity="0.14"/>
      <stop offset="0.5" stop-color="#A855F7" stop-opacity="0.12"/>
      <stop offset="1" stop-color="#0EA5E9" stop-opacity="0.10"/>
    </linearGradient>
    <linearGradient id="accent" x1="0" y1="0" x2="1" y2="1">
      <stop stop-color="#F97316"/>
      <stop offset="1" stop-color="#A855F7"/>
    </linearGradient>
    <filter id="shadow" x="-20" y="-20" width="1240" height="940" filterUnits="userSpaceOnUse" color-interpolation-filters="sRGB">
      <feDropShadow dx="0" dy="18" stdDeviation="28" flood-color="#0F172A" flood-opacity="0.16"/>
    </filter>
  </defs>

  <rect x="110" y="90" width="980" height="720" rx="64" fill="url(#bg)"/>
  <circle cx="260" cy="660" r="170" fill="#22C55E" fill-opacity="0.08"/>
  <circle cx="960" cy="240" r="150" fill="#6366F1" fill-opacity="0.08"/>

  <g filter="url(#shadow)">
    <rect x="250" y="190" width="700" height="520" rx="28" fill="#FFFFFF" fill-opacity="0.92"/>
    <rect x="250" y="190" width="700" height="520" rx="28" stroke="#E2E8F0"/>

    <!-- header -->
    <rect x="290" y="230" width="260" height="18" rx="9" fill="#0F172A" fill-opacity="0.12"/>
    <rect x="290" y="262" width="180" height="14" rx="7" fill="#0F172A" fill-opacity="0.06"/>

    <!-- rating card -->
    <rect x="290" y="304" width="660" height="140" rx="22" fill="#F8FAFC" stroke="#E2E8F0"/>
    <rect x="320" y="336" width="180" height="16" rx="8" fill="#0F172A" fill-opacity="0.10"/>
    <rect x="320" y="366" width="120" height="12" rx="6" fill="#0F172A" fill-opacity="0.06"/>
    <rect x="740" y="330" width="180" height="40" rx="20" fill="url(#accent)" fill-opacity="0.85"/>
    <rect x="760" y="344" width="90" height="12" rx="6" fill="#FFFFFF" fill-opacity="0.55"/>

    <!-- stars -->
    <g fill="#F59E0B" fill-opacity="0.9">
      <path d="M337 406l6 12 13 2-9 9 2 13-12-6-12 6 2-13-9-9 13-2 6-12z"/>
      <path d="M373 406l6 12 13 2-9 9 2 13-12-6-12 6 2-13-9-9 13-2 6-12z"/>
      <path d="M409 406l6 12 13 2-9 9 2 13-12-6-12 6 2-13-9-9 13-2 6-12z"/>
      <path d="M445 406l6 12 13 2-9 9 2 13-12-6-12 6 2-13-9-9 13-2 6-12z"/>
      <path d="M481 406l6 12 13 2-9 9 2 13-12-6-12 6 2-13-9-9 13-2 6-12z"/>
    </g>

    <!-- distribution -->
    <rect x="290" y="468" width="660" height="212" rx="22" fill="#FFFFFF" stroke="#E2E8F0"/>
    <rect x="320" y="498" width="160" height="14" rx="7" fill="#0F172A" fill-opacity="0.10"/>
    <rect x="320" y="532" width="520" height="12" rx="6" fill="#0F172A" fill-opacity="0.06"/>
    <rect x="320" y="532" width="380" height="12" rx="6" fill="#22C55E" fill-opacity="0.20"/>
    <rect x="320" y="560" width="520" height="12" rx="6" fill="#0F172A" fill-opacity="0.06"/>
    <rect x="320" y="560" width="300" height="12" rx="6" fill="#0EA5E9" fill-opacity="0.20"/>
    <rect x="320" y="588" width="520" height="12" rx="6" fill="#0F172A" fill-opacity="0.06"/>
    <rect x="320" y="588" width="220" height="12" rx="6" fill="#A855F7" fill-opacity="0.20"/>
    <rect x="320" y="616" width="520" height="12" rx="6" fill="#0F172A" fill-opacity="0.06"/>
    <rect x="320" y="616" width="160" height="12" rx="6" fill="#F97316" fill-opacity="0.18"/>
  </g>
</svg>


